<svg width="64" height="64" viewBox="0 0 64 64" fill="none" xmlns="http://www.w3.org/2000/svg">
<path d="M21.3333 50.6667C22.7478 50.6667 24.1044 50.1048 25.1046 49.1046C26.1048 48.1044 26.6667 46.7478 26.6667 45.3333C26.6667 43.9188 26.1048 42.5623 25.1046 41.5621C24.1044 40.5619 22.7478 40 21.3333 40C19.9188 40 18.5623 40.5619 17.5621 41.5621C16.5619 42.5623 16 43.9188 16 45.3333C16 46.7478 16.5619 48.1044 17.5621 49.1046C18.5623 50.1048 19.9188 50.6667 21.3333 50.6667ZM48 50.6667C49.4145 50.6667 50.771 50.1048 51.7712 49.1046C52.7714 48.1044 53.3333 46.7478 53.3333 45.3333C53.3333 43.9188 52.7714 42.5623 51.7712 41.5621C50.771 40.5619 49.4145 40 48 40C46.5855 40 45.229 40.5619 44.2288 41.5621C43.2286 42.5623 42.6667 43.9188 42.6667 45.3333C42.6667 46.7478 43.2286 48.1044 44.2288 49.1046C45.229 50.1048 46.5855 50.6667 48 50.6667Z" stroke="#FDCD17" stroke-width="4" stroke-miterlimit="1.5" stroke-linecap="round" stroke-linejoin="round"/>
<path d="M26.8 45.3333H40V17.6C40 17.1757 39.8314 16.7687 39.5314 16.4686C39.2313 16.1686 38.8243 16 38.4 16H2.66666M15.0667 45.3333H9.59999C9.38987 45.3333 9.18182 45.292 8.9877 45.2115C8.79358 45.1311 8.61719 45.0133 8.46862 44.8647C8.32005 44.7161 8.20219 44.5397 8.12178 44.3456C8.04137 44.1515 7.99999 43.9434 7.99999 43.7333V30.6667" stroke="#FDCD17" stroke-width="4" stroke-linecap="round"/>
<path d="M5.33331 24H16" stroke="#FDCD17" stroke-width="4" stroke-linecap="round" stroke-linejoin="round"/>
<path d="M40 24H54.96C55.2693 24.0001 55.5719 24.0898 55.8312 24.2583C56.0906 24.4268 56.2956 24.6668 56.4213 24.9493L61.1947 35.6907C61.2856 35.8946 61.3328 36.1154 61.3333 36.3387V43.7333C61.3333 43.9434 61.292 44.1515 61.2115 44.3456C61.1311 44.5397 61.0133 44.7161 60.8647 44.8647C60.7161 45.0133 60.5397 45.1311 60.3456 45.2115C60.1515 45.292 59.9434 45.3333 59.7333 45.3333H54.6667M40 45.3333H42.6667" stroke="#FDCD17" stroke-width="4" stroke-linecap="round"/>
</svg>
