<svg width="60" height="60" viewBox="0 0 60 60" fill="none" xmlns="http://www.w3.org/2000/svg">
<path d="M60 49.322H55.9322L52.8813 43.2204H48.8135L45.7627 49.322H17.2881L13.2204 43.2204H5.08478V26.9492H13.2213L13.2204 22.8813H40.678V26.9492H45.7627L48.8135 32.0339H52.8813L55.9322 22.8813H60V49.322Z" fill="#29285D"/>
<path d="M5.08477 35.0847H1.01695C0.45457 35.0847 0 34.6301 0 34.0677C0 33.5054 0.45457 33.0508 1.01695 33.0508H5.08477C5.64715 33.0508 6.10172 33.5054 6.10172 34.0677C6.10172 34.6301 5.64715 35.0847 5.08477 35.0847Z" fill="#29285D"/>
<path d="M1.01695 39.1527C0.45457 39.1527 0 38.6981 0 38.1357V30.0001C0 29.4377 0.45457 28.9832 1.01695 28.9832C1.57934 28.9832 2.03391 29.4377 2.03391 30.0001V38.1357C2.03391 38.6981 1.57934 39.1527 1.01695 39.1527Z" fill="#29285D"/>
<path d="M18.3046 16.7796H36.6096V10.678H18.3046V16.7796Z" fill="#29285D"/>
<path d="M22.3724 22.8813H32.5419V16.7795H22.3724V22.8813Z" fill="#29285D"/>
<path d="M5.08417 43.2205H13.2198V26.9492H5.08417V43.2205Z" fill="#29285D"/>
<path d="M48.813 43.2204H52.8809V32.0339H48.813V43.2204Z" fill="#29285D"/>
</svg>
