<svg width="60" height="60" viewBox="0 0 60 60" fill="none" xmlns="http://www.w3.org/2000/svg">
<path d="M30 10.8208C15.1134 10.8208 3.04535 22.8889 3.04535 37.7755V43.9958H56.9547V37.7755C56.9547 22.8888 44.8866 10.8208 30 10.8208Z" fill="#29285D"/>
<path d="M57.9914 43.9958H17.5594C16.9868 43.9958 16.5226 43.5316 16.5226 42.959V37.7755C16.5226 32.863 17.4357 28.2622 19.0271 24.2995C19.2686 23.6983 20.1547 23.8014 20.2649 24.44L22.4461 37.0912C22.6175 38.0856 23.4803 38.8124 24.4895 38.8124H35.5104C36.5196 38.8124 37.3822 38.0859 37.5538 37.0912L41.6292 13.4534C38.1083 11.7666 34.1647 10.8208 30 10.8208C26.0298 10.8208 22.2652 11.6887 18.8715 13.2301C18.8714 13.2291 18.8711 13.2281 18.8708 13.2272C18.8504 13.2365 18.3742 13.4744 18.3742 13.4744C9.31324 17.8174 3.04535 27.0562 3.04535 37.7755V43.9958H2.00859C1.43601 43.9958 0.971832 44.4599 0.971832 45.0325V46.354C0.971832 46.8024 1.25226 47.203 1.67847 47.3424C9.09386 49.7669 19.0487 51.2527 30 51.2527C40.9513 51.2527 50.9061 49.7669 58.3214 47.3424C58.7476 47.2031 59.028 46.8025 59.028 46.354V45.0325C59.028 44.4599 58.5639 43.9958 57.9914 43.9958Z" fill="#29285D"/>
<path d="M32.1437 38.8121H27.8564C26.7391 38.8121 25.8227 37.9268 25.7843 36.8101L24.8905 10.8922C24.8501 9.71985 25.7896 8.74731 26.9626 8.74731H33.0375C34.2107 8.74731 35.15 9.71974 35.1096 10.8922L34.2158 36.8101C34.1775 37.9266 33.261 38.8121 32.1437 38.8121Z" fill="#29285D"/>
<path d="M58.3214 45.3493C50.9061 47.0813 40.9511 48.1425 30 48.1425C19.0489 48.1425 9.09387 47.0813 1.6786 45.3493C1.3384 45.2699 1.09863 45.0701 1.01262 44.8303C0.998907 44.8978 0.971954 44.9606 0.971954 45.0324V46.3539C0.971954 46.8024 1.25238 47.2028 1.6786 47.3422C9.09387 49.7668 19.0489 51.2527 30 51.2527C40.9511 51.2527 50.9061 49.7668 58.3214 47.3424C58.7476 47.2029 59.028 46.8025 59.028 46.354V45.0325C59.028 44.9608 59.0011 44.8979 58.9874 44.8304C58.9014 45.0701 58.6616 45.2699 58.3214 45.3493Z" fill="#FFFEFA"/>
<path d="M28.562 36.8101L27.9276 10.8922C27.8988 9.71985 28.5659 8.74731 29.3988 8.74731H26.9629C25.7897 8.74731 24.8503 9.71974 24.8908 10.8922L25.7844 36.8101C25.8229 37.9268 26.7394 38.8121 27.8567 38.8121H30.0335C29.2398 38.8121 28.5893 37.9266 28.562 36.8101Z" fill="#FFFEFA"/>
<path d="M57.9914 43.0238H57.9266V37.7754C57.9266 24.6771 48.7759 13.3245 36.0669 10.5107C35.9994 9.83344 35.7095 9.20344 35.2277 8.7048C34.6487 8.10551 33.8709 7.77539 33.0375 7.77539H26.9625C26.1291 7.77539 25.3513 8.10551 24.7723 8.7048C24.2906 9.20344 24.0006 9.83344 23.9331 10.5107C11.2241 13.3245 2.0734 24.6771 2.0734 37.7754V43.0238H2.00859C0.900937 43.0238 0 43.9248 0 45.0323V46.354C0 47.2286 0.553242 47.997 1.3766 48.2661C9.18375 50.8188 19.3492 52.2246 30 52.2246C40.6508 52.2246 50.8162 50.8188 58.6234 48.2661C59.4468 47.997 60 47.2286 60 46.354V45.0323C60 43.9248 59.0989 43.0238 57.9914 43.0238ZM26.1703 10.0554C26.3797 9.83871 26.6611 9.71918 26.9625 9.71918H33.0374C33.3388 9.71918 33.6202 9.83848 33.8296 10.0554C34.039 10.2722 34.1487 10.5575 34.1382 10.8587L33.2446 36.7766C33.2239 37.3731 32.7404 37.8403 32.1437 37.8403H27.8564C27.2597 37.8403 26.7762 37.3731 26.7555 36.7767L25.8619 10.8588C25.8513 10.5574 25.9609 10.2722 26.1703 10.0554ZM58.0562 46.3541C58.0562 46.3802 58.0448 46.4104 58.0194 46.4187C50.402 48.9091 40.4511 50.2808 30 50.2808C19.5489 50.2808 9.59801 48.9091 1.9807 46.4184C1.95527 46.4101 1.94391 46.3801 1.94391 46.354V45.0323C1.94391 44.9966 1.97297 44.9675 2.00871 44.9675H39.3305C39.8672 44.9675 40.3024 44.5324 40.3024 43.9956C40.3024 43.4588 39.8673 43.0236 39.3305 43.0236H4.0173V37.7754C4.0173 28.0072 9.48727 19.2832 17.7465 14.8568L19.8554 29.62C19.9248 30.1048 20.3405 30.4546 20.8165 30.4546C20.8622 30.4546 20.9085 30.4513 20.9551 30.4447C21.4866 30.3688 21.8558 29.8765 21.7799 29.3452L19.5826 13.9634C20.982 13.3507 22.4494 12.8575 23.9733 12.4961L24.8129 36.8439C24.8698 38.4926 26.2066 39.7842 27.8565 39.7842H32.1438C33.7936 39.7842 35.1305 38.4926 35.1874 36.8439L36.0271 12.4962C37.5509 12.8577 39.0184 13.3509 40.4177 13.9635L38.2205 29.3453C38.1446 29.8767 38.5139 30.3689 39.0452 30.4448C39.0919 30.4514 39.1382 30.4547 39.1839 30.4547C39.6598 30.4547 40.0755 30.1048 40.1449 29.6201L42.2538 14.8569C50.5131 19.2832 55.983 28.0071 55.983 37.7754V43.0238H49.6977C49.161 43.0238 48.7257 43.4589 48.7257 43.9957C48.7257 44.5325 49.1609 44.9677 49.6977 44.9677H57.9916C58.0274 44.9677 58.0564 44.9967 58.0564 45.0325V46.3541H58.0562Z" fill="#FDCD17"/>
</svg>
