<svg width="64" height="64" viewBox="0 0 64 64" fill="none" xmlns="http://www.w3.org/2000/svg">
<path d="M8 16H56V48H8V16ZM32 24C34.1217 24 36.1566 24.8429 37.6569 26.3431C39.1571 27.8434 40 29.8783 40 32C40 34.1217 39.1571 36.1566 37.6569 37.6569C36.1566 39.1571 34.1217 40 32 40C29.8783 40 27.8434 39.1571 26.3431 37.6569C24.8429 36.1566 24 34.1217 24 32C24 29.8783 24.8429 27.8434 26.3431 26.3431C27.8434 24.8429 29.8783 24 32 24ZM18.6667 21.3333C18.6667 22.7478 18.1048 24.1044 17.1046 25.1046C16.1044 26.1048 14.7478 26.6667 13.3333 26.6667V37.3333C14.7478 37.3333 16.1044 37.8952 17.1046 38.8954C18.1048 39.8956 18.6667 41.2522 18.6667 42.6667H45.3333C45.3333 41.2522 45.8952 39.8956 46.8954 38.8954C47.8956 37.8952 49.2522 37.3333 50.6667 37.3333V26.6667C49.2522 26.6667 47.8956 26.1048 46.8954 25.1046C45.8952 24.1044 45.3333 22.7478 45.3333 21.3333H18.6667Z" fill="#FDCD17"/>
</svg>
