<svg width="60" height="60" viewBox="0 0 60 60" fill="none" xmlns="http://www.w3.org/2000/svg">
<path d="M46.1525 24.942L24.217 50.909L28.9026 33.393L29.4075 31.5053H27.4535H15.186H15.135L15.0841 31.5088C14.8322 31.5259 14.5801 31.4792 14.3512 31.373C14.1222 31.2668 13.9237 31.1045 13.7742 30.9011C13.6247 30.6977 13.5289 30.4599 13.4958 30.2097C13.463 29.9621 13.4926 29.7103 13.5818 29.4771L23.26 5.50615C23.3904 5.20388 23.6082 4.94743 23.8856 4.76991C24.1659 4.59048 24.494 4.50007 24.8267 4.51058L24.8504 4.51133H24.874H37.8914H37.9424L37.9933 4.50786C38.2452 4.49071 38.4973 4.53742 38.7262 4.64365C38.9552 4.74988 39.1537 4.9122 39.3032 5.11556C39.4527 5.31893 39.5485 5.55675 39.5816 5.80699C39.6142 6.05279 39.5853 6.30277 39.4975 6.53454L33.746 20.4342L32.8879 22.5077H35.132H45.0155C45.2931 22.5142 45.5635 22.5976 45.7966 22.7488C46.0325 22.9019 46.2207 23.1182 46.3395 23.3731C46.4583 23.628 46.5031 23.9111 46.4687 24.1903C46.4348 24.4653 46.3253 24.7255 46.1525 24.942Z" fill="#29285D" stroke="#29285D" stroke-width="3"/>
<path d="M47.3095 25.8968L21.0348 57.0005L27.4535 33.0053H15.186C14.6822 33.0396 14.1779 32.9462 13.7199 32.7337C13.2618 32.5212 12.8648 32.1965 12.5657 31.7897C12.2666 31.3829 12.075 30.9071 12.0087 30.4066C11.9425 29.906 12.0036 29.3968 12.1866 28.9261L21.8746 4.93094C22.1225 4.34568 22.5416 3.84912 23.077 3.5065C23.6123 3.16389 24.2388 2.99127 24.874 3.01133H37.8914C38.3952 2.97702 38.8995 3.07045 39.3575 3.28296C39.8156 3.49547 40.2126 3.82017 40.5117 4.22698C40.8108 4.63379 41.0024 5.10953 41.0687 5.6101C41.1349 6.11067 41.0738 6.61988 40.8908 7.09051L35.132 21.0077H45.03C45.5925 21.017 46.141 21.1843 46.613 21.4905C47.0849 21.7966 47.4613 22.2294 47.699 22.7392C47.9367 23.2491 48.0263 23.8155 47.9574 24.3739C47.8885 24.9322 47.664 25.4599 47.3095 25.8968Z" stroke="#29285D" stroke-width="3" stroke-linecap="round" stroke-linejoin="round"/>
</svg>
